<svg width="60" height="60" viewBox="0 0 60 60" fill="none" xmlns="http://www.w3.org/2000/svg">
<rect width="60" height="60" rx="30" fill="white" fill-opacity="0.4"/>
<g opacity="0.8">
<path fill-rule="evenodd" clip-rule="evenodd" d="M30 20C30.6904 20 31.25 20.5596 31.25 21.25V38.75C31.25 39.4404 30.6904 40 30 40C29.3096 40 28.75 39.4404 28.75 38.75V21.25C28.75 20.5596 29.3096 20 30 20Z" fill="#82818C"/>
<path fill-rule="evenodd" clip-rule="evenodd" d="M29.1161 20.3661C29.6043 19.878 30.3957 19.878 30.8839 20.3661L39.6339 29.1161C40.122 29.6043 40.122 30.3957 39.6339 30.8839C39.1457 31.372 38.3543 31.372 37.8661 30.8839L30 23.0178L22.1339 30.8839C21.6457 31.372 20.8543 31.372 20.3661 30.8839C19.878 30.3957 19.878 29.6043 20.3661 29.1161L29.1161 20.3661Z" fill="#82818C"/>
</g>
</svg>
