<svg width="100" height="96" viewBox="0 0 100 96" fill="none" xmlns="http://www.w3.org/2000/svg">
<g filter="url(#filter0_d_162_2104)">
<rect x="20" y="16" width="60" height="60" rx="30" fill="white" fill-opacity="0.4" shape-rendering="crispEdges"/>
<path fill-rule="evenodd" clip-rule="evenodd" d="M61.8839 34.1161C62.372 34.6043 62.372 35.3957 61.8839 35.8839L48.1339 49.6339C47.6457 50.122 46.8543 50.122 46.3661 49.6339C45.878 49.1457 45.878 48.3543 46.3661 47.8661L60.1161 34.1161C60.6043 33.628 61.3957 33.628 61.8839 34.1161Z" fill="#FF1A3B"/>
<path fill-rule="evenodd" clip-rule="evenodd" d="M61.8839 34.1162C62.2234 34.4557 62.3385 34.9597 62.1798 35.413L53.4298 60.413C53.2605 60.8967 52.8131 61.2281 52.301 61.249C51.7889 61.2699 51.3159 60.9761 51.1077 60.5077L46.303 49.697L35.4923 44.8923C35.024 44.6841 34.7302 44.2112 34.751 43.6991C34.7719 43.187 35.1033 42.7395 35.5871 42.5702L60.5871 33.8202C61.0403 33.6616 61.5443 33.7766 61.8839 34.1162ZM39.3889 43.8883L47.7577 47.6078C48.0405 47.7335 48.2666 47.9596 48.3923 48.2424L52.1118 56.6112L58.9625 37.0375L39.3889 43.8883Z" fill="#FF1A3B"/>
</g>
<defs>
<filter id="filter0_d_162_2104" x="0" y="0" width="100" height="100" filterUnits="userSpaceOnUse" color-interpolation-filters="sRGB">
<feFlood flood-opacity="0" result="BackgroundImageFix"/>
<feColorMatrix in="SourceAlpha" type="matrix" values="0 0 0 0 0 0 0 0 0 0 0 0 0 0 0 0 0 0 127 0" result="hardAlpha"/>
<feOffset dy="4"/>
<feGaussianBlur stdDeviation="10"/>
<feComposite in2="hardAlpha" operator="out"/>
<feColorMatrix type="matrix" values="0 0 0 0 0.5875 0 0 0 0 0.5875 0 0 0 0 0.5875 0 0 0 0.1 0"/>
<feBlend mode="normal" in2="BackgroundImageFix" result="effect1_dropShadow_162_2104"/>
<feBlend mode="normal" in="SourceGraphic" in2="effect1_dropShadow_162_2104" result="shape"/>
</filter>
</defs>
</svg>
