<svg width="215" height="60" viewBox="0 0 215 60" fill="none" xmlns="http://www.w3.org/2000/svg">
<path d="M68.79 26H66.675V14.687H60.654V26H58.539V13.04H68.79V26ZM78.7032 21.14L76.9122 16.406C76.8462 16.226 76.7742 16.019 76.6962 15.785C76.6182 15.545 76.5432 15.287 76.4712 15.011C76.4052 15.293 76.3332 15.554 76.2552 15.794C76.1832 16.028 76.1112 16.235 76.0392 16.415L74.2572 21.14H78.7032ZM82.6812 26H81.0522C80.8722 26 80.7222 25.955 80.6022 25.865C80.4882 25.769 80.4042 25.652 80.3502 25.514L79.2702 22.652H73.6812L72.6012 25.514C72.5532 25.634 72.4692 25.745 72.3492 25.847C72.2292 25.949 72.0822 26 71.9082 26H70.2702L75.4092 13.04H77.5422L82.6812 26ZM92.8339 23.111C92.9479 23.111 93.0469 23.156 93.1309 23.246L93.9679 24.155C93.4399 24.791 92.7919 25.283 92.0239 25.631C91.2559 25.973 90.3379 26.144 89.2699 26.144C88.3219 26.144 87.4639 25.982 86.6959 25.658C85.9339 25.328 85.2829 24.872 84.7429 24.29C84.2029 23.702 83.7859 23.003 83.4919 22.193C83.2039 21.383 83.0599 20.492 83.0599 19.52C83.0599 18.548 83.2129 17.657 83.5189 16.847C83.8309 16.031 84.2659 15.332 84.8239 14.75C85.3879 14.162 86.0599 13.706 86.8399 13.382C87.6259 13.058 88.4899 12.896 89.4319 12.896C90.3679 12.896 91.1929 13.049 91.9069 13.355C92.6269 13.655 93.2509 14.057 93.7789 14.561L93.0859 15.542C93.0379 15.608 92.9809 15.665 92.9149 15.713C92.8489 15.761 92.7589 15.785 92.6449 15.785C92.5249 15.785 92.3869 15.731 92.2309 15.623C92.0809 15.509 91.8859 15.386 91.6459 15.254C91.4119 15.116 91.1149 14.993 90.7549 14.885C90.4009 14.771 89.9569 14.714 89.4229 14.714C88.8049 14.714 88.2379 14.822 87.7219 15.038C87.2059 15.254 86.7619 15.569 86.3899 15.983C86.0179 16.397 85.7269 16.901 85.5169 17.495C85.3129 18.089 85.2109 18.764 85.2109 19.52C85.2109 20.282 85.3189 20.963 85.5349 21.563C85.7509 22.157 86.0479 22.661 86.4259 23.075C86.8039 23.483 87.2479 23.795 87.7579 24.011C88.2679 24.227 88.8169 24.335 89.4049 24.335C89.7649 24.335 90.0859 24.317 90.3679 24.281C90.6559 24.239 90.9199 24.176 91.1599 24.092C91.3999 24.002 91.6249 23.891 91.8349 23.759C92.0509 23.627 92.2639 23.465 92.4739 23.273C92.5939 23.165 92.7139 23.111 92.8339 23.111ZM106.038 26H103.923V14.687H97.902V26H95.787V13.04H106.038V26ZM121.288 19.52C121.288 20.48 121.132 21.365 120.82 22.175C120.508 22.985 120.067 23.684 119.497 24.272C118.933 24.854 118.252 25.31 117.454 25.64C116.662 25.97 115.78 26.135 114.808 26.135C113.842 26.135 112.96 25.97 112.162 25.64C111.37 25.31 110.689 24.854 110.119 24.272C109.549 23.684 109.108 22.985 108.796 22.175C108.484 21.365 108.328 20.48 108.328 19.52C108.328 18.56 108.484 17.675 108.796 16.865C109.108 16.055 109.549 15.356 110.119 14.768C110.689 14.18 111.37 13.721 112.162 13.391C112.96 13.061 113.842 12.896 114.808 12.896C115.78 12.896 116.662 13.061 117.454 13.391C118.252 13.721 118.933 14.18 119.497 14.768C120.067 15.356 120.508 16.055 120.82 16.865C121.132 17.675 121.288 18.56 121.288 19.52ZM119.137 19.52C119.137 18.776 119.035 18.107 118.831 17.513C118.633 16.919 118.345 16.415 117.967 16.001C117.595 15.587 117.142 15.269 116.608 15.047C116.074 14.825 115.474 14.714 114.808 14.714C114.148 14.714 113.551 14.825 113.017 15.047C112.483 15.269 112.027 15.587 111.649 16.001C111.271 16.415 110.98 16.919 110.776 17.513C110.572 18.107 110.47 18.776 110.47 19.52C110.47 20.27 110.572 20.942 110.776 21.536C110.98 22.13 111.271 22.634 111.649 23.048C112.027 23.456 112.483 23.771 113.017 23.993C113.551 24.209 114.148 24.317 114.808 24.317C115.474 24.317 116.074 24.209 116.608 23.993C117.142 23.771 117.595 23.456 117.967 23.048C118.345 22.634 118.633 22.13 118.831 21.536C119.035 20.942 119.137 20.27 119.137 19.52ZM127.628 19.646C128.096 19.646 128.507 19.586 128.861 19.466C129.221 19.346 129.518 19.178 129.752 18.962C129.992 18.74 130.172 18.473 130.292 18.161C130.412 17.849 130.472 17.501 130.472 17.117C130.472 16.739 130.412 16.4 130.292 16.1C130.178 15.8 130.004 15.545 129.77 15.335C129.536 15.125 129.239 14.966 128.879 14.858C128.525 14.744 128.108 14.687 127.628 14.687H125.702V19.646H127.628ZM127.628 13.04C128.474 13.04 129.206 13.139 129.824 13.337C130.448 13.535 130.961 13.814 131.363 14.174C131.771 14.528 132.074 14.957 132.272 15.461C132.47 15.959 132.569 16.511 132.569 17.117C132.569 17.735 132.464 18.302 132.254 18.818C132.044 19.328 131.732 19.769 131.318 20.141C130.904 20.507 130.388 20.795 129.77 21.005C129.158 21.209 128.444 21.311 127.628 21.311H125.702V26H123.596V13.04H127.628ZM143.501 14.795H139.46V26H137.363V14.795H133.313V13.04H143.501V14.795ZM156.033 13.04V26H153.927V20.231H147.42V26H145.305V13.04H147.42V18.71H153.927V13.04H156.033ZM171.298 19.52C171.298 20.48 171.142 21.365 170.83 22.175C170.518 22.985 170.077 23.684 169.507 24.272C168.943 24.854 168.262 25.31 167.464 25.64C166.672 25.97 165.79 26.135 164.818 26.135C163.852 26.135 162.97 25.97 162.172 25.64C161.38 25.31 160.699 24.854 160.129 24.272C159.559 23.684 159.118 22.985 158.806 22.175C158.494 21.365 158.338 20.48 158.338 19.52C158.338 18.56 158.494 17.675 158.806 16.865C159.118 16.055 159.559 15.356 160.129 14.768C160.699 14.18 161.38 13.721 162.172 13.391C162.97 13.061 163.852 12.896 164.818 12.896C165.79 12.896 166.672 13.061 167.464 13.391C168.262 13.721 168.943 14.18 169.507 14.768C170.077 15.356 170.518 16.055 170.83 16.865C171.142 17.675 171.298 18.56 171.298 19.52ZM169.147 19.52C169.147 18.776 169.045 18.107 168.841 17.513C168.643 16.919 168.355 16.415 167.977 16.001C167.605 15.587 167.152 15.269 166.618 15.047C166.084 14.825 165.484 14.714 164.818 14.714C164.158 14.714 163.561 14.825 163.027 15.047C162.493 15.269 162.037 15.587 161.659 16.001C161.281 16.415 160.99 16.919 160.786 17.513C160.582 18.107 160.48 18.776 160.48 19.52C160.48 20.27 160.582 20.942 160.786 21.536C160.99 22.13 161.281 22.634 161.659 23.048C162.037 23.456 162.493 23.771 163.027 23.993C163.561 24.209 164.158 24.317 164.818 24.317C165.484 24.317 166.084 24.209 166.618 23.993C167.152 23.771 167.605 23.456 167.977 23.048C168.355 22.634 168.643 22.13 168.841 21.536C169.045 20.942 169.147 20.27 169.147 19.52ZM173.137 19.763H177.7V21.401H173.137V19.763ZM63.255 46.335C63.729 46.335 64.128 46.281 64.452 46.173C64.782 46.059 65.049 45.906 65.253 45.714C65.463 45.522 65.613 45.297 65.703 45.039C65.799 44.775 65.847 44.493 65.847 44.193C65.847 43.581 65.637 43.101 65.217 42.753C64.803 42.399 64.146 42.222 63.246 42.222H60.645V46.335H63.255ZM60.645 36.687V40.737H62.751C63.651 40.737 64.323 40.563 64.767 40.215C65.211 39.867 65.433 39.366 65.433 38.712C65.433 37.998 65.223 37.482 64.803 37.164C64.389 36.846 63.738 36.687 62.85 36.687H60.645ZM62.85 35.04C63.678 35.04 64.386 35.121 64.974 35.283C65.562 35.439 66.045 35.664 66.423 35.958C66.801 36.252 67.077 36.612 67.251 37.038C67.431 37.458 67.521 37.932 67.521 38.46C67.521 38.766 67.473 39.063 67.377 39.351C67.287 39.633 67.143 39.9 66.945 40.152C66.753 40.398 66.51 40.62 66.216 40.818C65.922 41.016 65.574 41.181 65.172 41.313C67.008 41.703 67.926 42.678 67.926 44.238C67.926 44.79 67.821 45.297 67.611 45.759C67.407 46.215 67.107 46.611 66.711 46.947C66.321 47.277 65.838 47.535 65.262 47.721C64.686 47.907 64.029 48 63.291 48H58.539V35.04H62.85ZM81.0268 35.04V48H78.9208V39.396C78.9208 39.108 78.9268 38.808 78.9388 38.496C78.9568 38.184 78.9898 37.848 79.0378 37.488C78.9238 37.8 78.8008 38.091 78.6688 38.361C78.5428 38.625 78.4168 38.859 78.2908 39.063L72.8008 47.343C72.7528 47.421 72.6958 47.499 72.6298 47.577C72.5698 47.655 72.4978 47.727 72.4138 47.793C72.3358 47.853 72.2518 47.904 72.1618 47.946C72.0718 47.982 71.9758 48 71.8738 48H70.2988V35.04H72.4138V43.635C72.4138 43.923 72.4048 44.226 72.3868 44.544C72.3748 44.856 72.3448 45.186 72.2968 45.534C72.4108 45.228 72.5308 44.943 72.6568 44.679C72.7888 44.409 72.9148 44.175 73.0348 43.977L78.5248 35.697C78.5728 35.619 78.6268 35.541 78.6868 35.463C78.7528 35.385 78.8248 35.316 78.9028 35.256C78.9868 35.19 79.0738 35.139 79.1638 35.103C79.2538 35.061 79.3498 35.04 79.4518 35.04H81.0268ZM83.3682 36.255C83.8662 35.823 84.4482 35.49 85.1142 35.256C85.7862 35.022 86.5392 34.905 87.3732 34.905C88.0572 34.905 88.6722 34.989 89.2182 35.157C89.7702 35.319 90.2382 35.55 90.6222 35.85C91.0122 36.144 91.3092 36.498 91.5132 36.912C91.7232 37.32 91.8282 37.77 91.8282 38.262C91.8282 38.886 91.6782 39.447 91.3782 39.945C91.0842 40.437 90.6522 40.83 90.0822 41.124C90.3942 41.268 90.6792 41.439 90.9372 41.637C91.1952 41.835 91.4142 42.057 91.5942 42.303C91.7802 42.543 91.9242 42.807 92.0262 43.095C92.1282 43.377 92.1792 43.677 92.1792 43.995C92.1792 44.571 92.0712 45.111 91.8552 45.615C91.6452 46.113 91.3332 46.551 90.9192 46.929C90.5112 47.301 90.0102 47.595 89.4162 47.811C88.8222 48.021 88.1442 48.126 87.3822 48.126C86.9262 48.126 86.4822 48.084 86.0502 48C85.6242 47.922 85.2192 47.811 84.8352 47.667C84.4572 47.517 84.1002 47.337 83.7642 47.127C83.4342 46.917 83.1342 46.683 82.8642 46.425L83.4762 45.417C83.5302 45.333 83.5992 45.267 83.6832 45.219C83.7672 45.171 83.8602 45.147 83.9622 45.147C84.0582 45.147 84.1602 45.177 84.2682 45.237C84.3762 45.297 84.4992 45.375 84.6372 45.471C84.7812 45.561 84.9402 45.66 85.1142 45.768C85.2882 45.87 85.4892 45.969 85.7172 46.065C85.9452 46.155 86.2002 46.23 86.4822 46.29C86.7642 46.35 87.0822 46.38 87.4362 46.38C88.3182 46.38 88.9992 46.185 89.4792 45.795C89.9652 45.405 90.2082 44.835 90.2082 44.085C90.2082 43.773 90.1452 43.491 90.0192 43.239C89.8932 42.981 89.7132 42.762 89.4792 42.582C89.2452 42.402 88.9602 42.264 88.6242 42.168C88.2942 42.066 87.9222 42.018 87.5082 42.024H85.7082L85.6992 40.305H87.3822C87.7542 40.305 88.0932 40.263 88.3992 40.179C88.7052 40.095 88.9662 39.975 89.1822 39.819C89.3982 39.657 89.5632 39.462 89.6772 39.234C89.7972 39 89.8572 38.733 89.8572 38.433C89.8572 38.163 89.8002 37.92 89.6862 37.704C89.5782 37.482 89.4192 37.293 89.2092 37.137C88.9992 36.981 88.7382 36.861 88.4262 36.777C88.1142 36.687 87.7602 36.642 87.3642 36.642C86.9022 36.642 86.5092 36.693 86.1852 36.795C85.8612 36.891 85.5822 36.999 85.3482 37.119C85.1142 37.233 84.9192 37.338 84.7632 37.434C84.6072 37.53 84.4722 37.578 84.3582 37.578C84.2502 37.578 84.1602 37.554 84.0882 37.506C84.0222 37.452 83.9562 37.371 83.8902 37.263L83.3682 36.255ZM106.698 41.52C106.698 42.48 106.542 43.365 106.23 44.175C105.918 44.985 105.477 45.684 104.907 46.272C104.343 46.854 103.662 47.31 102.864 47.64C102.072 47.97 101.19 48.135 100.218 48.135C99.2524 48.135 98.3704 47.97 97.5724 47.64C96.7804 47.31 96.0994 46.854 95.5294 46.272C94.9594 45.684 94.5184 44.985 94.2064 44.175C93.8944 43.365 93.7384 42.48 93.7384 41.52C93.7384 40.56 93.8944 39.675 94.2064 38.865C94.5184 38.055 94.9594 37.356 95.5294 36.768C96.0994 36.18 96.7804 35.721 97.5724 35.391C98.3704 35.061 99.2524 34.896 100.218 34.896C101.19 34.896 102.072 35.061 102.864 35.391C103.662 35.721 104.343 36.18 104.907 36.768C105.477 37.356 105.918 38.055 106.23 38.865C106.542 39.675 106.698 40.56 106.698 41.52ZM104.547 41.52C104.547 40.776 104.445 40.107 104.241 39.513C104.043 38.919 103.755 38.415 103.377 38.001C103.005 37.587 102.552 37.269 102.018 37.047C101.484 36.825 100.884 36.714 100.218 36.714C99.5584 36.714 98.9614 36.825 98.4274 37.047C97.8934 37.269 97.4374 37.587 97.0594 38.001C96.6814 38.415 96.3904 38.919 96.1864 39.513C95.9824 40.107 95.8804 40.776 95.8804 41.52C95.8804 42.27 95.9824 42.942 96.1864 43.536C96.3904 44.13 96.6814 44.634 97.0594 45.048C97.4374 45.456 97.8934 45.771 98.4274 45.993C98.9614 46.209 99.5584 46.317 100.218 46.317C100.884 46.317 101.484 46.209 102.018 45.993C102.552 45.771 103.005 45.456 103.377 45.048C103.755 44.634 104.043 44.13 104.241 43.536C104.445 42.942 104.547 42.27 104.547 41.52ZM113.722 46.335C114.196 46.335 114.595 46.281 114.919 46.173C115.249 46.059 115.516 45.906 115.72 45.714C115.93 45.522 116.08 45.297 116.17 45.039C116.266 44.775 116.314 44.493 116.314 44.193C116.314 43.581 116.104 43.101 115.684 42.753C115.27 42.399 114.613 42.222 113.713 42.222H111.112V46.335H113.722ZM111.112 36.687V40.737H113.218C114.118 40.737 114.79 40.563 115.234 40.215C115.678 39.867 115.9 39.366 115.9 38.712C115.9 37.998 115.69 37.482 115.27 37.164C114.856 36.846 114.205 36.687 113.317 36.687H111.112ZM113.317 35.04C114.145 35.04 114.853 35.121 115.441 35.283C116.029 35.439 116.512 35.664 116.89 35.958C117.268 36.252 117.544 36.612 117.718 37.038C117.898 37.458 117.988 37.932 117.988 38.46C117.988 38.766 117.94 39.063 117.844 39.351C117.754 39.633 117.61 39.9 117.412 40.152C117.22 40.398 116.977 40.62 116.683 40.818C116.389 41.016 116.041 41.181 115.639 41.313C117.475 41.703 118.393 42.678 118.393 44.238C118.393 44.79 118.288 45.297 118.078 45.759C117.874 46.215 117.574 46.611 117.178 46.947C116.788 47.277 116.305 47.535 115.729 47.721C115.153 47.907 114.496 48 113.758 48H109.006V35.04H113.317ZM125.167 46.335C125.641 46.335 126.04 46.284 126.364 46.182C126.694 46.074 126.961 45.927 127.165 45.741C127.369 45.549 127.516 45.327 127.606 45.075C127.702 44.817 127.75 44.538 127.75 44.238C127.75 43.914 127.705 43.623 127.615 43.365C127.525 43.107 127.378 42.891 127.174 42.717C126.97 42.537 126.703 42.399 126.373 42.303C126.049 42.207 125.65 42.159 125.176 42.159H122.872V46.335H125.167ZM125.176 40.494C125.992 40.494 126.691 40.584 127.273 40.764C127.861 40.944 128.344 41.193 128.722 41.511C129.1 41.823 129.376 42.195 129.55 42.627C129.73 43.059 129.82 43.524 129.82 44.022C129.82 44.628 129.715 45.177 129.505 45.669C129.301 46.155 129.001 46.572 128.605 46.92C128.209 47.268 127.72 47.535 127.138 47.721C126.562 47.907 125.905 48 125.167 48H120.766V35.04H122.872V40.494H125.176ZM134.059 48H131.944V35.04H134.059V48ZM147.859 35.04V48H145.753V39.396C145.753 39.108 145.759 38.808 145.771 38.496C145.789 38.184 145.822 37.848 145.87 37.488C145.756 37.8 145.633 38.091 145.501 38.361C145.375 38.625 145.249 38.859 145.123 39.063L139.633 47.343C139.585 47.421 139.528 47.499 139.462 47.577C139.402 47.655 139.33 47.727 139.246 47.793C139.168 47.853 139.084 47.904 138.994 47.946C138.904 47.982 138.808 48 138.706 48H137.131V35.04H139.246V43.635C139.246 43.923 139.237 44.226 139.219 44.544C139.207 44.856 139.177 45.186 139.129 45.534C139.243 45.228 139.363 44.943 139.489 44.679C139.621 44.409 139.747 44.175 139.867 43.977L145.357 35.697C145.405 35.619 145.459 35.541 145.519 35.463C145.585 35.385 145.657 35.316 145.735 35.256C145.819 35.19 145.906 35.139 145.996 35.103C146.086 35.061 146.182 35.04 146.284 35.04H147.859ZM142.576 33.258C142.81 33.258 143.005 33.234 143.161 33.186C143.323 33.138 143.452 33.06 143.548 32.952C143.644 32.838 143.713 32.688 143.755 32.502C143.797 32.316 143.818 32.082 143.818 31.8H144.952C145.09 31.8 145.192 31.86 145.258 31.98C145.324 32.1 145.357 32.229 145.357 32.367C145.357 32.667 145.291 32.934 145.159 33.168C145.033 33.402 144.85 33.6 144.61 33.762C144.37 33.918 144.076 34.038 143.728 34.122C143.386 34.2 143.002 34.239 142.576 34.239C142.15 34.239 141.763 34.2 141.415 34.122C141.073 34.038 140.782 33.918 140.542 33.762C140.302 33.6 140.116 33.402 139.984 33.168C139.858 32.934 139.795 32.667 139.795 32.367C139.795 32.229 139.828 32.1 139.894 31.98C139.96 31.86 140.062 31.8 140.2 31.8H141.334C141.334 32.082 141.355 32.316 141.397 32.502C141.439 32.688 141.508 32.838 141.604 32.952C141.7 33.06 141.826 33.138 141.982 33.186C142.144 33.234 142.342 33.258 142.576 33.258ZM167.598 46.353V50.502C167.598 50.682 167.535 50.829 167.409 50.943C167.283 51.057 167.121 51.114 166.923 51.114H165.672V48H155.43V35.04H157.545V46.353H163.566V35.04H165.681V46.353H167.598ZM177.689 46.299L177.68 48H169.598V35.04H177.68V36.741H171.713V40.647H176.483V42.294H171.713V46.299H177.689ZM190.697 35.04V48H188.591V42.231H182.084V48H179.969V35.04H182.084V40.71H188.591V35.04H190.697ZM202.704 36.795H198.663V48H196.566V36.795H192.516V35.04H202.704V36.795ZM208.54 41.646C209.008 41.646 209.419 41.586 209.773 41.466C210.133 41.346 210.43 41.178 210.664 40.962C210.904 40.74 211.084 40.473 211.204 40.161C211.324 39.849 211.384 39.501 211.384 39.117C211.384 38.739 211.324 38.4 211.204 38.1C211.09 37.8 210.916 37.545 210.682 37.335C210.448 37.125 210.151 36.966 209.791 36.858C209.437 36.744 209.02 36.687 208.54 36.687H206.614V41.646H208.54ZM208.54 35.04C209.386 35.04 210.118 35.139 210.736 35.337C211.36 35.535 211.873 35.814 212.275 36.174C212.683 36.528 212.986 36.957 213.184 37.461C213.382 37.959 213.481 38.511 213.481 39.117C213.481 39.735 213.376 40.302 213.166 40.818C212.956 41.328 212.644 41.769 212.23 42.141C211.816 42.507 211.3 42.795 210.682 43.005C210.07 43.209 209.356 43.311 208.54 43.311H206.614V48H204.508V35.04H208.54Z" fill="#0073F9"/>
<path d="M7.49969 11.4327V36.0247C7.49969 37.5299 8.09233 38.9733 9.14722 40.0376C10.2021 41.1019 11.6329 41.6998 13.1247 41.6998H31.8747C33.3665 41.6998 34.7973 41.1019 35.8522 40.0376C36.9071 38.9733 37.4997 37.5299 37.4997 36.0247V17.1078C37.4997 15.6027 36.9071 14.1592 35.8522 13.0949C34.7973 12.0306 33.3665 11.4327 31.8747 11.4327H7.49969ZM7.49969 11.4327V9.54102" stroke="#0073F9" stroke-width="3.06019" stroke-linecap="round"/>
<path d="M22.4999 32.2418C25.6065 32.2418 28.1249 29.7009 28.1249 26.5667C28.1249 23.4324 25.6065 20.8916 22.4999 20.8916C19.3933 20.8916 16.8749 23.4324 16.8749 26.5667C16.8749 29.7009 19.3933 32.2418 22.4999 32.2418Z" stroke="#FF1A3B" stroke-width="3.06019"/>
<path d="M33.7498 11.4329V12.8517H35.1561V11.4329H33.7498ZM9.50607 12.8517H33.7498V10.0141H9.50794L9.50607 12.8517ZM35.1561 11.4329V8.22836H32.3436V11.4329H35.1561ZM29.2704 3.07916L9.02607 5.99616L9.42357 8.80532L29.6679 5.89022L29.2704 3.08106V3.07916ZM9.02607 5.99616C8.21184 6.11327 7.46687 6.52296 6.92811 7.14993C6.38935 7.77689 6.09301 8.57899 6.09357 9.40877H8.90607C8.9056 9.26231 8.95778 9.12064 9.05293 9.01002C9.14809 8.89941 9.27977 8.82546 9.42357 8.80532L9.02607 5.99805V5.99616ZM35.1561 8.22836C35.156 7.48307 34.9972 6.74651 34.6904 6.06854C34.3836 5.39057 33.936 4.78702 33.3779 4.29875C32.8198 3.81048 32.1642 3.4489 31.4556 3.23849C30.7469 3.02808 30.0017 2.97374 29.2704 3.07916L29.6679 5.89022C30.0003 5.84226 30.339 5.86501 30.6612 5.9606C30.9833 6.05618 31.2813 6.22048 31.535 6.44237C31.7887 6.66426 31.9922 6.93856 32.1317 7.24669C32.2712 7.55483 32.3435 7.8896 32.3436 8.22836H35.1561ZM9.50794 10.0141C9.34832 10.0141 9.19523 9.95014 9.08235 9.83626C8.96948 9.72238 8.90607 9.56982 8.90607 9.40877H6.09357C6.09332 9.86122 6.18147 10.3074 6.35297 10.7254C6.52447 11.1435 6.77596 11.5233 7.09307 11.8433C7.41017 12.1632 7.78666 12.4169 8.20103 12.5899C8.61539 12.763 9.05762 12.8519 9.50607 12.8517L9.50794 10.0141Z" fill="#0073F9"/>
<path d="M8.0905 54.3025L7.213 51.6859C7.148 51.5198 7.07867 51.3252 7.005 51.1022C6.93133 50.8749 6.85767 50.6301 6.784 50.3678C6.719 50.6344 6.64967 50.8815 6.576 51.1088C6.50233 51.3361 6.433 51.5329 6.368 51.699L5.497 54.3025H8.0905ZM11.581 57.9552H9.878C9.68733 57.9552 9.5335 57.9115 9.4165 57.8241C9.2995 57.7322 9.21067 57.6164 9.15 57.4765L8.591 55.8108H4.99L4.431 57.4765C4.38333 57.5989 4.29667 57.7104 4.171 57.8109C4.04967 57.9071 3.898 57.9552 3.716 57.9552H2L5.666 48.4004H7.915L11.581 57.9552Z" fill="#FF1A3B"/>
<path d="M15.6439 53.0893C16.2159 53.0893 16.6276 52.9516 16.8789 52.6761C17.1302 52.4007 17.2559 52.016 17.2559 51.5219C17.2559 51.3033 17.2234 51.1044 17.1584 50.9252C17.0934 50.7459 16.9937 50.5929 16.8594 50.4661C16.7294 50.335 16.5626 50.2344 16.3589 50.1645C16.1596 50.0945 15.9212 50.0595 15.6439 50.0595H14.4999V53.0893H15.6439ZM15.6439 48.4004C16.3112 48.4004 16.8832 48.4813 17.3599 48.643C17.8409 48.8004 18.2352 49.019 18.5429 49.2988C18.8549 49.5786 19.0846 49.9087 19.2319 50.2891C19.3792 50.6694 19.4529 51.0804 19.4529 51.5219C19.4529 51.9985 19.3771 52.4357 19.2254 52.8335C19.0737 53.2314 18.8419 53.5724 18.5299 53.8565C18.2179 54.1407 17.8214 54.3637 17.3404 54.5254C16.8637 54.6828 16.2982 54.7615 15.6439 54.7615H14.4999V57.9552H12.3029V48.4004H15.6439Z" fill="#FF1A3B"/>
<path d="M24.0386 56.283C24.3289 56.283 24.5672 56.2502 24.7536 56.1846C24.9399 56.119 25.0851 56.0316 25.1891 55.9223C25.2974 55.8086 25.3711 55.6818 25.4101 55.5419C25.4491 55.402 25.4686 55.2556 25.4686 55.1025C25.4686 54.9277 25.4491 54.7659 25.4101 54.6173C25.3711 54.4686 25.2974 54.3418 25.1891 54.2369C25.0851 54.1276 24.9399 54.0445 24.7536 53.9877C24.5672 53.9265 24.3289 53.8959 24.0386 53.8959H22.7646V56.283H24.0386ZM24.0386 52.2236C24.6929 52.2236 25.2476 52.2958 25.7026 52.44C26.1619 52.5843 26.5346 52.7789 26.8206 53.0237C27.1066 53.2641 27.3146 53.5461 27.4446 53.8697C27.5746 54.1888 27.6396 54.5254 27.6396 54.8796C27.6396 55.3386 27.5572 55.7583 27.3926 56.1387C27.2322 56.5147 26.9982 56.8382 26.6906 57.1092C26.3829 57.3759 26.0059 57.5836 25.5596 57.7322C25.1132 57.8809 24.6062 57.9552 24.0386 57.9552H20.5676V48.4004H27.2756V50.0595H22.7646V52.2236H24.0386Z" fill="#FF1A3B"/>
<path d="M33.6842 54.3025L32.8067 51.6859C32.7417 51.5198 32.6724 51.3252 32.5987 51.1022C32.5251 50.8749 32.4514 50.6301 32.3778 50.3678C32.3127 50.6344 32.2434 50.8815 32.1698 51.1088C32.0961 51.3361 32.0268 51.5329 31.9618 51.699L31.0907 54.3025H33.6842ZM37.1748 57.9552H35.4717C35.2811 57.9552 35.1273 57.9115 35.0103 57.8241C34.8932 57.7322 34.8044 57.6164 34.7438 57.4765L34.1847 55.8108H30.5837L30.0247 57.4765C29.9771 57.5989 29.8904 57.7104 29.7647 57.8109C29.6434 57.9071 29.4917 57.9552 29.3097 57.9552H27.5938L31.2598 48.4004H33.5088L37.1748 57.9552Z" fill="#FF1A3B"/>
<path d="M43.8008 50.1579H41.1358V57.9552H38.9388V50.1579H36.2738V48.4004H43.8008V50.1579Z" fill="#FF1A3B"/>
</svg>
