<svg width="15" height="15" viewBox="0 0 15 15" fill="none" xmlns="http://www.w3.org/2000/svg">
<path fill-rule="evenodd" clip-rule="evenodd" d="M6.58014 1.4267C6.86095 1.2686 7.17776 1.18555 7.50001 1.18555C7.82227 1.18555 8.13908 1.2686 8.41988 1.4267C8.70069 1.58479 8.93601 1.81259 9.10314 2.08812L9.10494 2.09109L14.3987 10.9286L14.4038 10.9372C14.5675 11.2207 14.6541 11.5422 14.655 11.8696C14.6559 12.197 14.5711 12.5189 14.409 12.8033C14.2469 13.0878 14.0131 13.3248 13.7309 13.4908C13.4487 13.6569 13.128 13.7461 12.8006 13.7497L12.7938 13.7498L2.19939 13.7498C1.87202 13.7462 1.55129 13.6569 1.26912 13.4908C0.986949 13.3248 0.753171 13.0878 0.591044 12.8033C0.428917 12.5189 0.344092 12.197 0.345009 11.8696C0.345925 11.5422 0.432552 11.2207 0.596269 10.9372L0.601346 10.9286L5.8951 2.09109L6.43125 2.41225L5.89689 2.08812C6.06402 1.81259 6.29934 1.58479 6.58014 1.4267ZM6.96639 2.73516L1.67669 11.5659C1.62346 11.6595 1.59531 11.7653 1.595 11.8731C1.5947 11.9822 1.62297 12.0895 1.67702 12.1843C1.73106 12.2792 1.80898 12.3582 1.90304 12.4135C1.99627 12.4684 2.10213 12.4981 2.21026 12.4998H12.7898C12.8979 12.4981 13.0038 12.4684 13.097 12.4135C13.191 12.3582 13.269 12.2791 13.323 12.1843C13.3771 12.0895 13.4053 11.9822 13.405 11.8731C13.4047 11.7654 13.3766 11.6596 13.3234 11.5659L8.03439 2.7364C8.03414 2.73599 8.03389 2.73557 8.03363 2.73516C7.97797 2.64388 7.89982 2.56839 7.80664 2.51593C7.71303 2.46323 7.60743 2.43555 7.50001 2.43555C7.3926 2.43555 7.28699 2.46323 7.19339 2.51593C7.10021 2.56839 7.02206 2.64388 6.96639 2.73516Z" fill="#0073F9"/>
<path fill-rule="evenodd" clip-rule="evenodd" d="M6.875 10.625C6.875 10.2798 7.15482 10 7.5 10H7.50625C7.85143 10 8.13125 10.2798 8.13125 10.625C8.13125 10.9702 7.85143 11.25 7.50625 11.25H7.5C7.15482 11.25 6.875 10.9702 6.875 10.625Z" fill="#0073F9"/>
<path fill-rule="evenodd" clip-rule="evenodd" d="M7.5 5C7.84518 5 8.125 5.27982 8.125 5.625V8.125C8.125 8.47018 7.84518 8.75 7.5 8.75C7.15482 8.75 6.875 8.47018 6.875 8.125V5.625C6.875 5.27982 7.15482 5 7.5 5Z" fill="#0073F9"/>
</svg>
