<svg width="35" height="36" viewBox="0 0 35 36" fill="none" xmlns="http://www.w3.org/2000/svg">
<path fill-rule="evenodd" clip-rule="evenodd" d="M25.8229 9.67714C26.3924 10.2467 26.3924 11.17 25.8229 11.7395L11.2395 26.3229C10.67 26.8924 9.74665 26.8924 9.17714 26.3229C8.60762 25.7533 8.60762 24.83 9.17714 24.2605L23.7605 9.67714C24.33 9.10762 25.2533 9.10762 25.8229 9.67714Z" fill="#FF1A3B"/>
<path fill-rule="evenodd" clip-rule="evenodd" d="M8.75 10.7083C8.75 9.90292 9.40292 9.25 10.2083 9.25H24.7917C25.5971 9.25 26.25 9.90292 26.25 10.7083V25.2917C26.25 26.0971 25.5971 26.75 24.7917 26.75C23.9863 26.75 23.3333 26.0971 23.3333 25.2917V12.1667H10.2083C9.40292 12.1667 8.75 11.5137 8.75 10.7083Z" fill="#FF1A3B"/>
</svg>
