<svg width="131" height="23" viewBox="0 0 131 23" fill="none" xmlns="http://www.w3.org/2000/svg">
<path d="M130.231 20.0836C130.768 19.9561 131.1 19.4171 130.973 18.8798L128.896 10.1228C128.768 9.5854 128.229 9.2531 127.692 9.38057C127.155 9.50804 126.822 10.047 126.95 10.5844L128.796 18.3684L121.012 20.2148C120.475 20.3423 120.143 20.8812 120.27 21.4186C120.397 21.956 120.936 22.2883 121.474 22.1608L130.231 20.0836ZM4.11404 18.3425C4.58818 18.0593 4.74298 17.4453 4.45978 16.9712C4.17657 16.4971 3.56262 16.3423 3.08847 16.6255L4.11404 18.3425ZM8.54835 13.62C8.05611 13.8705 7.86011 14.4725 8.11055 14.9648C8.361 15.457 8.96307 15.653 9.4553 15.4026L8.54835 13.62ZM14.9819 12.7885C15.4875 12.5662 15.7172 11.9762 15.4949 11.4706C15.2726 10.965 14.6826 10.7354 14.177 10.9576L14.9819 12.7885ZM19.936 8.60089C19.4198 8.79714 19.1604 9.37473 19.3566 9.89097C19.5529 10.4072 20.1305 10.6666 20.6467 10.4704L19.936 8.60089ZM26.4284 8.43167C26.9535 8.26053 27.2404 7.69612 27.0693 7.17102C26.8981 6.64592 26.3337 6.35897 25.8086 6.53011L26.4284 8.43167ZM31.7543 4.74538C31.2218 4.89179 30.9088 5.44218 31.0552 5.9747C31.2016 6.50723 31.752 6.82023 32.2845 6.67382L31.7543 4.74538ZM38.2251 5.18786C38.7638 5.06629 39.102 4.531 38.9804 3.99226C38.8589 3.45352 38.3236 3.11534 37.7849 3.23691L38.2251 5.18786ZM43.8792 2.00962C43.3354 2.10603 42.9727 2.62502 43.0691 3.16883C43.1655 3.71263 43.6845 4.07532 44.2283 3.97892L43.8792 2.00962ZM50.2791 3.05184C50.8268 2.98106 51.2134 2.47966 51.1427 1.93193C51.0719 1.3842 50.5705 0.997557 50.0227 1.06834L50.2791 3.05184ZM56.2037 0.418482C55.6533 0.463092 55.2432 0.945509 55.2878 1.49599C55.3324 2.04647 55.8148 2.45656 56.3653 2.41195L56.2037 0.418482ZM62.4818 2.065C63.0338 2.04716 63.4668 1.58522 63.4489 1.03322C63.4311 0.481223 62.9692 0.0482056 62.4172 0.0660479L62.4818 2.065ZM68.6278 0.0181219C68.0756 0.00871903 67.6204 0.448747 67.611 1.00095C67.6015 1.55316 68.0416 2.00843 68.5938 2.01783L68.6278 0.0181219ZM74.7085 2.27538C75.2595 2.31253 75.7363 1.89593 75.7735 1.3449C75.8106 0.793866 75.394 0.317054 74.843 0.279911L74.7085 2.27538ZM81.0412 0.856682C80.4928 0.79145 79.9953 1.18315 79.9301 1.73157C79.8649 2.27999 80.2566 2.77745 80.805 2.84268L81.0412 0.856682ZM86.8513 3.72032C87.3956 3.81375 87.9126 3.44823 88.006 2.90391C88.0995 2.35958 87.734 1.84258 87.1896 1.74915L86.8513 3.72032ZM93.2893 2.96025C92.7506 2.83862 92.2153 3.17673 92.0936 3.71545C91.972 4.25418 92.3101 4.78951 92.8488 4.91114L93.2893 2.96025ZM98.7803 6.41436C99.312 6.56399 99.8642 6.25432 100.014 5.72269C100.163 5.19106 99.8538 4.63879 99.3222 4.48916L98.7803 6.41436ZM105.271 6.33238C104.748 6.1552 104.18 6.43563 104.003 6.95872C103.825 7.48182 104.106 8.0495 104.629 8.22667L105.271 6.33238ZM110.364 10.3364C110.878 10.5404 111.459 10.2897 111.663 9.77649C111.867 9.26326 111.616 8.68184 111.103 8.47786L110.364 10.3364ZM116.817 10.9201C116.315 10.6902 115.722 10.9108 115.492 11.413C115.262 11.9152 115.483 12.5086 115.985 12.7385L116.817 10.9201ZM121.479 15.4231C121.969 15.6779 122.573 15.4872 122.827 14.9972C123.082 14.5072 122.891 13.9035 122.401 13.6487L121.479 15.4231ZM127.844 16.6505C127.367 16.3721 126.754 16.533 126.476 17.01C126.198 17.487 126.359 18.0993 126.836 18.3778L127.844 16.6505ZM1.54851 19.9467C2.35167 19.4198 3.20753 18.8839 4.11404 18.3425L3.08847 16.6255C2.15908 17.1806 1.27933 17.7314 0.45149 18.2744L1.54851 19.9467ZM9.4553 15.4026C11.182 14.524 13.0271 13.6479 14.9819 12.7885L14.177 10.9576C12.1884 11.8319 10.3092 12.7241 8.54835 13.62L9.4553 15.4026ZM20.6467 10.4704C22.5005 9.76565 24.4296 9.08308 26.4284 8.43167L25.8086 6.53011C23.7791 7.19157 21.8196 7.88485 19.936 8.60089L20.6467 10.4704ZM32.2845 6.67382C34.2133 6.14353 36.1949 5.64597 38.2251 5.18786L37.7849 3.23691C35.724 3.70195 33.7124 4.20704 31.7543 4.74538L32.2845 6.67382ZM44.2283 3.97892C46.2077 3.62803 48.2257 3.31718 50.2791 3.05184L50.0227 1.06834C47.9377 1.33777 45.8887 1.65338 43.8792 2.00962L44.2283 3.97892ZM56.3653 2.41195C58.3763 2.24897 60.4161 2.13177 62.4818 2.065L62.4172 0.0660479C60.3185 0.133883 58.2464 0.252947 56.2037 0.418482L56.3653 2.41195ZM68.5938 2.01783C70.6119 2.0522 72.651 2.1367 74.7085 2.27538L74.843 0.279911C72.7514 0.138927 70.6788 0.0530464 68.6278 0.0181219L68.5938 2.01783ZM80.805 2.84268C82.8065 3.08076 84.8227 3.37212 86.8513 3.72032L87.1896 1.74915C85.1266 1.39503 83.0764 1.09876 81.0412 0.856682L80.805 2.84268ZM92.8488 4.91114C94.8172 5.35557 96.795 5.8556 98.7803 6.41436L99.3222 4.48916C97.3029 3.92084 95.2913 3.41227 93.2893 2.96025L92.8488 4.91114ZM104.629 8.22667C106.536 8.87265 108.449 9.57499 110.364 10.3364L111.103 8.47786C109.155 7.70359 107.21 6.98935 105.271 6.33238L104.629 8.22667ZM115.985 12.7385C117.815 13.5765 119.647 14.4705 121.479 15.4231L122.401 13.6487C120.54 12.6806 118.678 11.7719 116.817 10.9201L115.985 12.7385ZM126.836 18.3778C127.716 18.8916 128.596 19.4195 129.475 19.9618L130.525 18.2594C129.632 17.7087 128.738 17.1725 127.844 16.6505L126.836 18.3778Z" fill="#FF1A3B"/>
</svg>
